<svg id="Group_7094" data-name="Group 7094" xmlns="http://www.w3.org/2000/svg" width="15.17" height="12.329" viewBox="0 0 15.17 12.329">
  <path id="Path_4" data-name="Path 4" d="M74.654,247.678a6.211,6.211,0,0,1-1.788.49,3.123,3.123,0,0,0,1.369-1.722,6.227,6.227,0,0,1-1.976.755,3.115,3.115,0,0,0-5.3,2.839,8.834,8.834,0,0,1-6.415-3.252,3.115,3.115,0,0,0,.963,4.156,3.1,3.1,0,0,1-1.41-.39c0,.013,0,.026,0,.039a3.114,3.114,0,0,0,2.5,3.051,3.118,3.118,0,0,1-1.405.054,3.115,3.115,0,0,0,2.907,2.161,6.291,6.291,0,0,1-4.608,1.289,8.851,8.851,0,0,0,13.627-7.457q0-.2-.009-.4a6.319,6.319,0,0,0,1.553-1.611Zm0,0" transform="translate(-59.484 -246.219)" fill="#fff"/>
</svg>
