<svg xmlns="http://www.w3.org/2000/svg" width="61.785" height="53.828" viewBox="0 0 61.785 53.828">
  <g id="Icon-B_Clients" transform="translate(0)">
    <path id="Path_17015" data-name="Path 17015" d="M168.439,90.958a10.5,10.5,0,1,0-10.5-10.5,10.5,10.5,0,0,0,10.5,10.5Zm0-17.377a6.88,6.88,0,1,1-6.878,6.879A6.88,6.88,0,0,1,168.439,73.581Z" transform="translate(-137.548 -69.96)" fill="#4ebece"/>
    <path id="Path_17016" data-name="Path 17016" d="M299.128,124.635A6.638,6.638,0,1,0,292.49,118,6.638,6.638,0,0,0,299.128,124.635Zm0-9.654A3.018,3.018,0,1,1,296.111,118,3.018,3.018,0,0,1,299.128,114.981Z" transform="translate(-246.997 -103.637)" fill="#4ebece"/>
    <path id="Path_17017" data-name="Path 17017" d="M102.221,204.52h-2.8a8.208,8.208,0,0,0-7.444,4.753,14.57,14.57,0,0,0-10.768-4.748H77.835a14.57,14.57,0,0,0-10.768,4.748,8.208,8.208,0,0,0-7.445-4.748h-2.8a8.177,8.177,0,0,0-8.193,8.143v13.18a3.545,3.545,0,0,0,3.545,3.535H63.25a4.231,4.231,0,0,0,4.211,3.862H91.586a4.231,4.231,0,0,0,4.211-3.862h10.941a3.673,3.673,0,0,0,3.677-3.66V212.665A8.179,8.179,0,0,0,102.221,204.52ZM64.2,213.9c-1.218,3.171-.966,5.069-.966,11.855H52.244v-13.1a4.554,4.554,0,0,1,4.572-4.524h2.8a4.554,4.554,0,0,1,4.574,4.524Zm28,15.111a.606.606,0,0,1-.606.6H67.457a.6.6,0,0,1-.606-.6v-9.887a11.007,11.007,0,0,1,10.984-10.984h3.373a11.007,11.007,0,0,1,10.984,10.984Zm3.621-3.255c0-6.837.25-8.692-.966-11.855v-1.241a4.554,4.554,0,0,1,4.574-4.524h2.8a4.554,4.554,0,0,1,4.572,4.524v13.059c0,.058.672.037-10.979.037Z" transform="translate(-48.63 -179.417)" fill="#00355e"/>
    <path id="Path_17018" data-name="Path 17018" d="M71.428,124.635A6.638,6.638,0,1,0,64.79,118a6.638,6.638,0,0,0,6.638,6.638Zm0-9.654A3.018,3.018,0,1,1,68.411,118a3.018,3.018,0,0,1,3.017-3.017Z" transform="translate(-61.775 -103.637)" fill="#4ebece"/>
  </g>
</svg>
