<svg xmlns="http://www.w3.org/2000/svg" width="31" height="31" viewBox="0 0 31 31">
  <g id="icon-sm-G_" data-name="icon-sm-G+" transform="translate(16794 15730)">
    <path id="Path_17813" data-name="Path 17813" d="M15.5,0A15.5,15.5,0,1,1,0,15.5,15.5,15.5,0,0,1,15.5,0Z" transform="translate(-16794 -15730)" fill="#4ebece"/>
    <g id="Group_7096" data-name="Group 7096" transform="translate(-16786 -15720.045)">
      <g id="Group_15" data-name="Group 15" transform="translate(0 0)">
        <g id="Group_14" data-name="Group 14">
          <path id="Path_10" data-name="Path 10" d="M287.6,251.495v1.987h3.287a3.13,3.13,0,0,1-3.287,2.5,3.66,3.66,0,0,1,0-7.319,3.261,3.261,0,0,1,2.31.894l1.573-1.515a5.554,5.554,0,0,0-3.883-1.515,5.8,5.8,0,0,0,0,11.59,5.615,5.615,0,0,0,5.472-6.623Z" transform="translate(-281.808 -246.528)" fill="#fff"/>
          <path id="Path_11" data-name="Path 11" d="M325.34,257.825h-1.656v-1.656h-1.656v1.656h-1.656v1.656h1.656v1.656h1.656v-1.656h1.656Z" transform="translate(-307.127 -252.858)" fill="#fff"/>
        </g>
      </g>
    </g>
  </g>
</svg>
