<svg id="icon-clock" xmlns="http://www.w3.org/2000/svg" width="23.583" height="23.583" viewBox="0 0 23.583 23.583">
  <path id="Path_16454" data-name="Path 16454" d="M21.1,6.205a.983.983,0,0,0-.457,1.312,9.726,9.726,0,0,1,.973,4.274,9.826,9.826,0,1,1-9.826-9.826,9.708,9.708,0,0,1,6.1,2.12.983.983,0,1,0,1.223-1.538,11.793,11.793,0,1,0,4.469,9.244,11.671,11.671,0,0,0-1.169-5.13A.982.982,0,0,0,21.1,6.205Zm0,0" transform="translate(0 0)" fill="#4ebece"/>
  <path id="Path_16455" data-name="Path 16455" d="M176.983,64a.983.983,0,0,0-.983.983v6.878a.983.983,0,0,0,.983.983H181.9a.983.983,0,1,0,0-1.965h-3.93v-5.9A.983.983,0,0,0,176.983,64Zm0,0" transform="translate(-165.191 -60.07)" fill="#4ebece"/>
</svg>
