<svg id="Icon-EMR-Hover" xmlns="http://www.w3.org/2000/svg" xmlns:xlink="http://www.w3.org/1999/xlink" width="44" height="44.104" viewBox="0 0 44 44.104">
  <defs>
    <clipPath id="clip-path">
      <rect id="Rectangle_5581" data-name="Rectangle 5581" width="44" height="44.104" fill="#fff"/>
    </clipPath>
    <clipPath id="clip-path-2">
      <rect id="Rectangle_5580" data-name="Rectangle 5580" width="44" height="44.105" fill="#fff"/>
    </clipPath>
    <clipPath id="clip-path-3">
      <rect id="Rectangle_5579" data-name="Rectangle 5579" width="32.745" height="24.255" fill="#fff"/>
    </clipPath>
  </defs>
  <g id="Group_19950" data-name="Group 19950" clip-path="url(#clip-path)">
    <g id="Group_19949" data-name="Group 19949" transform="translate(0 0)">
      <g id="Group_19948" data-name="Group 19948" clip-path="url(#clip-path-2)">
        <path id="Path_32739" data-name="Path 32739" d="M30.443,20.512V1.438H7.027v15.4h.519c1.452,0,2.9.008,4.355-.006a1.2,1.2,0,0,1,.932.391c.974.994,1.971,1.966,2.941,2.964a1,1,0,0,0,.8.334q6.693-.017,13.385-.007Z" transform="translate(0.335 0.069)" fill="#42bfd0"/>
        <path id="Path_32740" data-name="Path 32740" d="M5.869,16.905V1.056C5.869.212,6.08,0,6.924,0h24.3c.843,0,1.055.213,1.057,1.055q0,.872.006,1.745a.764.764,0,0,0,.043.14c.6,0,1.224,0,1.845,0,.817,0,1.039.219,1.039,1.026q0,5.1,0,10.2V14.7c1.17,0,2.3-.034,3.423.012A8.909,8.909,0,0,1,41.112,15a4.158,4.158,0,0,1,2.879,3.733,2.715,2.715,0,0,1-.125.989Q41.059,29.961,38.24,40.193c-.072.264-.114.537-.16.808a3.634,3.634,0,0,1-3.609,3.1c-2.614.016-5.227.005-7.839.005H3.984A3.7,3.7,0,0,1,0,40.13V20.884a3.691,3.691,0,0,1,3.975-3.979H5.869M19.026,42.631q7.565,0,15.129,0a2.242,2.242,0,0,0,2.525-2.5V24.554a2.232,2.232,0,0,0-2.48-2.5q-8.849,0-17.7.007A1.438,1.438,0,0,1,15.37,21.6q-1.45-1.5-2.953-2.951a1.011,1.011,0,0,0-.629-.259c-2.627-.017-5.256-.012-7.884-.01a2.222,2.222,0,0,0-2.436,2.456q0,9.669,0,19.337a2.228,2.228,0,0,0,2.477,2.462q7.541,0,15.082,0M30.778,20.58V1.508H7.362v15.4H7.88c1.452,0,2.9.009,4.355-.005a1.2,1.2,0,0,1,.932.39c.974.994,1.971,1.966,2.942,2.964a1.007,1.007,0,0,0,.8.335q6.693-.017,13.385-.008Zm7.369,14.094.067.019c.024-.068.053-.134.072-.2q2.1-7.643,4.2-15.287a1.289,1.289,0,0,0,.022-.541,2.919,2.919,0,0,0-2.906-2.489c-1.344-.012-2.688,0-4.032,0a3.406,3.406,0,0,0-.344.034v4.429a3.746,3.746,0,0,1,2.918,4.078v9.961M32.311,20.558h1.41V4.43h-1.41Z" transform="translate(0 0)" fill="#fff"/>
        <path id="Path_32741" data-name="Path 32741" d="M36.546,33.939V23.978A3.746,3.746,0,0,0,33.628,19.9V15.471a3.427,3.427,0,0,1,.345-.034c1.344,0,2.688-.01,4.032,0a2.918,2.918,0,0,1,2.905,2.489,1.306,1.306,0,0,1-.021.541q-2.095,7.645-4.2,15.287c-.019.069-.047.135-.071.2l-.068-.019" transform="translate(1.601 0.735)" fill="#43bed0"/>
        <path id="Path_32742" data-name="Path 32742" d="M20.129,14.556H18.675c0-.621,0-1.241,0-1.861,0-.853-.212-1.1-1.042-1.062a2.337,2.337,0,0,1-2.521-1.524H13.435a2.367,2.367,0,0,1-2.6,1.525c-.717-.037-.958.237-.96.959,0,.64,0,1.28,0,1.946H8.358a23.182,23.182,0,0,1,.19-2.882,2.036,2.036,0,0,1,1.979-1.5c.276-.01.552.012.826-.009a.743.743,0,0,0,.567-1.2A2.962,2.962,0,0,1,11.341,7.1a13.166,13.166,0,0,1,.086-1.965,2.879,2.879,0,0,1,3.117-2.32A2.942,2.942,0,0,1,17.2,5.668c.015.52.007,1.04,0,1.561a3.4,3.4,0,0,1-.556,1.72.973.973,0,0,0-.061.788.981.981,0,0,0,.644.4c.4.082.828.012,1.225.1a2.078,2.078,0,0,1,1.658,1.854c.059.8.013,1.615.013,2.466M15.737,6.483c0-.276.015-.552,0-.827a1.471,1.471,0,0,0-1.448-1.379,1.456,1.456,0,0,0-1.473,1.4c-.023.534-.022,1.072,0,1.606a1.463,1.463,0,0,0,2.924-.018c.013-.26,0-.521,0-.78" transform="translate(0.398 0.134)" fill="#fff"/>
        <path id="Path_32743" data-name="Path 32743" d="M24.677,7.217c-.932,0-1.865.005-2.8,0-.6,0-.866-.271-.871-.871q-.009-1.331,0-2.664c0-.6.268-.871.867-.872q2.8-.008,5.593,0c.6,0,.867.27.872.87q.009,1.333,0,2.664c0,.6-.271.87-.868.874-.932.006-1.864,0-2.8,0M22.509,5.709h4.34V4.295h-4.34Z" transform="translate(1 0.134)" fill="#fff"/>
        <rect id="Rectangle_5575" data-name="Rectangle 5575" width="7.278" height="1.416" transform="translate(22.029 8.843)" fill="#fff"/>
        <rect id="Rectangle_5576" data-name="Rectangle 5576" width="7.294" height="1.413" transform="translate(22.028 11.785)" fill="#fff"/>
        <rect id="Rectangle_5577" data-name="Rectangle 5577" width="7.278" height="1.415" transform="translate(22.044 14.733)" fill="#fff"/>
        <rect id="Rectangle_5578" data-name="Rectangle 5578" width="7.294" height="1.413" transform="translate(22.03 17.673)" fill="#fff"/>
        <path id="Path_32744" data-name="Path 32744" d="M22.088,29.286c-1.1,0-1.17-.071-1.17-1.158V25.955a.326.326,0,0,0-.327-.327H17.008a.326.326,0,0,0-.327.327v2.174c0,1.086-.072,1.158-1.17,1.158H13.375a.327.327,0,0,0-.327.327v3.013a.329.329,0,0,0,.33.327c.836,0,1.654,0,2.472,0,.642,0,.83.193.83.848,0,.611,0,1.88,0,2.477a.323.323,0,0,0,.327.323h3.583a.322.322,0,0,0,.327-.323c0-.6,0-1.866,0-2.477,0-.655.188-.846.83-.848.818,0,1.636,0,2.472,0a.326.326,0,0,0,.33-.323V29.609a.324.324,0,0,0-.327-.323Z" transform="translate(0.621 1.221)" fill="#4ebece"/>
        <path id="Path_32745" data-name="Path 32745" d="M20.516,25.675a.449.449,0,0,1,.449.449v2.052c0,1.086.071,1.157,1.17,1.157h2.014a.448.448,0,0,1,.449.448v2.771a.45.45,0,0,1-.453.447H21.8c-.642,0-.83.193-.831.848V36.2a.448.448,0,0,1-.449.448H17.178a.447.447,0,0,1-.449-.448c0-.634,0-1.78,0-2.351,0-.655-.189-.846-.83-.848h-2.35a.452.452,0,0,1-.453-.449V29.783a.45.45,0,0,1,.449-.45h2.014c1.1,0,1.169-.07,1.169-1.157V26.124a.45.45,0,0,1,.45-.449h3.338Zm0-1.048H17.178a1.5,1.5,0,0,0-1.5,1.5v2.161H13.545a1.5,1.5,0,0,0-1.5,1.5V32.55a1.5,1.5,0,0,0,1.5,1.5H15.68V36.2a1.5,1.5,0,0,0,1.5,1.5h3.338a1.5,1.5,0,0,0,1.5-1.5V34.048h2.133a1.5,1.5,0,0,0,1.5-1.495V29.781a1.5,1.5,0,0,0-1.5-1.5H22.013V26.124a1.5,1.5,0,0,0-1.5-1.5" transform="translate(0.574 1.173)" fill="#fff"/>
        <g id="Group_19947" data-name="Group 19947" transform="translate(1.467 18.376)" opacity="0.2">
          <g id="Group_19946" data-name="Group 19946">
            <g id="Group_19945" data-name="Group 19945" clip-path="url(#clip-path-3)">
              <path id="Path_32746" data-name="Path 32746" d="M17.754,21.056q7.807-.016,15.614-.007h-.014q-7.805,0-15.613.006h.013" transform="translate(-0.622 -17.373)" fill="#fff"/>
              <path id="Path_32747" data-name="Path 32747" d="M5.973,41.8A2.229,2.229,0,0,1,3.5,39.334V20a2.217,2.217,0,0,1,2.4-2.452c-.686,0-1.371,0-2.058,0A2.222,2.222,0,0,0,1.4,20V39.334A2.229,2.229,0,0,0,3.878,41.8q7.541,0,15.083,0h1.572q-7.28,0-14.56,0" transform="translate(-1.401 -17.54)" fill="#fff"/>
            </g>
          </g>
        </g>
      </g>
    </g>
  </g>
</svg>
