<svg id="icon-devApp" xmlns="http://www.w3.org/2000/svg" width="45.776" height="36.054" viewBox="0 0 45.776 36.054">
  <path id="Path_18539" data-name="Path 18539" d="M669.736,374.653H653.749a3.273,3.273,0,0,0-3.269,3.269v14.538a3.273,3.273,0,0,0,3.269,3.269h15.985A3.273,3.273,0,0,0,673,392.459V377.922A3.273,3.273,0,0,0,669.736,374.653Zm-9.345,14.912a1.09,1.09,0,0,1-1.654,1.417l-4.361-5.086a1.088,1.088,0,0,1,0-1.417l4.359-5.086a1.09,1.09,0,0,1,1.654,1.417l-3.75,4.377Zm8.716-3.669-4.357,5.088a1.09,1.09,0,0,1-1.654-1.417l3.752-4.377-3.752-4.38a1.09,1.09,0,0,1,1.654-1.417l4.357,5.086A1.088,1.088,0,0,1,669.106,385.9Z" transform="translate(-627.229 -374.651)" fill="#3fb3c4"/>
  <path id="Path_18540" data-name="Path 18540" d="M630.6,397.519a1.09,1.09,0,0,0-1.09,1.09v8.823a1.091,1.091,0,0,1-1.09,1.09h-28.7v-25.88H605.9a1.09,1.09,0,1,0,0-2.181H588.095v-2.544a1.09,1.09,0,0,1,1.09-1.09h17.093a1.09,1.09,0,1,0,0-2.181h-17.1a3.273,3.273,0,0,0-3.269,3.271v29.514a3.274,3.274,0,0,0,3.269,3.269h39.238a3.274,3.274,0,0,0,3.269-3.269v-8.823A1.091,1.091,0,0,0,630.6,397.519Zm-42.5,9.913V382.643h9.445v25.88h-8.357a1.09,1.09,0,0,1-1.09-1.09Z" transform="translate(-585.914 -374.647)" fill="#00355e"/>
  <path id="Path_18541" data-name="Path 18541" d="M599.109,405.079h2.907a1.09,1.09,0,1,0,0-2.181h-2.907a1.09,1.09,0,1,0,0,2.181Z" transform="translate(-593.66 -392.725)" fill="#00355e"/>
  <path id="Path_18542" data-name="Path 18542" d="M602.017,419.04h-2.9a1.09,1.09,0,0,0,0,2.181h2.907a1.09,1.09,0,0,0,0-2.181Z" transform="translate(-593.662 -403.053)" fill="#00355e"/>
  <path id="Path_18543" data-name="Path 18543" d="M602.017,435.182h-2.9a1.09,1.09,0,0,0,0,2.181h2.907a1.09,1.09,0,0,0,0-2.181Z" transform="translate(-593.662 -413.382)" fill="#00355e"/>
  <path id="Path_18544" data-name="Path 18544" d="M631.392,405.079H634.3a1.09,1.09,0,1,0,0-2.181h-2.908a1.09,1.09,0,0,0,0,2.181Z" transform="translate(-614.317 -392.725)" fill="#00355e"/>
  <path id="Path_18545" data-name="Path 18545" d="M631.395,421.221H634.3a1.09,1.09,0,0,0,0-2.181h-2.911a1.09,1.09,0,0,0,0,2.181Z" transform="translate(-614.32 -403.053)" fill="#00355e"/>
  <path id="Path_18546" data-name="Path 18546" d="M631.395,437.363H634.3a1.09,1.09,0,0,0,0-2.181h-2.911a1.09,1.09,0,0,0,0,2.181Z" transform="translate(-614.32 -413.382)" fill="#00355e"/>
  <path id="Path_18547" data-name="Path 18547" d="M649.918,452.413a1.09,1.09,0,0,0-1.091-1.09H631.389a1.09,1.09,0,1,0,0,2.18h17.441A1.09,1.09,0,0,0,649.918,452.413Z" transform="translate(-614.314 -423.711)" fill="#00355e"/>
</svg>
