<svg xmlns="http://www.w3.org/2000/svg" width="62.131" height="59.571" viewBox="0 0 62.131 59.571">
  <g id="Icon-client-and-patient-relation" transform="translate(0 0)">
    <path id="Path_17010" data-name="Path 17010" d="M222.841,205.447a9.56,9.56,0,0,0-7.349,3.4,9.638,9.638,0,0,0-16.983,6.234c0,9.378,15.361,20.963,16.016,21.452a1.623,1.623,0,0,0,1.933,0c.655-.489,16.014-12.072,16.014-21.452A9.643,9.643,0,0,0,222.841,205.447Zm6.4,9.632c0,5.718-8.542,13.991-13.747,18.113-5.207-4.117-13.756-12.386-13.756-18.113A6.4,6.4,0,0,1,214,212.519a1.66,1.66,0,0,0,2.964,0,6.4,6.4,0,0,1,12.264,2.56Z" transform="translate(-170.342 -177.28)" fill="#4ebece"/>
    <g id="Group_7488" data-name="Group 7488" transform="translate(0 0)">
      <path id="Path_17011" data-name="Path 17011" d="M55.1,208.7H70.463a1.618,1.618,0,1,0,0-3.233H55.1a9.309,9.309,0,0,0-9.3,9.3V225a1.618,1.618,0,0,0,1.616,1.618H70.472a1.618,1.618,0,1,0,0-3.233H49.033v-8.627A6.074,6.074,0,0,1,55.1,208.7Z" transform="translate(-45.8 -177.294)" fill="#00355e"/>
      <path id="Path_17012" data-name="Path 17012" d="M106.258,52.74a11.86,11.86,0,1,0,11.862,11.853A11.86,11.86,0,0,0,106.258,52.74Zm8.625,11.853a8.627,8.627,0,1,1-8.626-8.627,8.627,8.627,0,0,1,8.626,8.627Z" transform="translate(-85.436 -52.74)" fill="#00355e"/>
      <path id="Path_17013" data-name="Path 17013" d="M116.6,88.973c-3.047,0-5.242-2.07-6.377-3.462a17.869,17.869,0,0,1-12.644,3.263,1.28,1.28,0,1,1,.31-2.54c1.636.194,7.33.529,11.7-3.534a1.291,1.291,0,0,1,1.979.293c.1.172,2.516,4.213,6.179,3.268a1.285,1.285,0,0,1,.636,2.49,7.009,7.009,0,0,1-1.782.231Z" transform="translate(-87.073 -76.899)" fill="#00355e"/>
      <path id="Path_17014" data-name="Path 17014" d="M115.3,87.778a8.764,8.764,0,0,1-6.428-3.339,18.37,18.37,0,0,1-12.633,3.136,1.616,1.616,0,1,1,.389-3.208c1.607.185,7.181.507,11.436-3.447A1.66,1.66,0,0,1,109.4,80.5a1.627,1.627,0,0,1,1.164.788c.1.162,2.374,4,5.8,3.11a1.619,1.619,0,1,1,.806,3.136A7.4,7.4,0,0,1,115.3,87.778Zm-6.321-4.259.207.253c2.365,2.905,4.846,3.339,6.115,3.339a6.762,6.762,0,0,0,1.7-.219.946.946,0,0,0,.681-1.151.957.957,0,0,0-1.155-.679,4.759,4.759,0,0,1-1.2.155c-3.23,0-5.261-3.418-5.349-3.58a.946.946,0,0,0-.677-.457.961.961,0,0,0-.782.24c-4.466,4.146-10.292,3.822-11.973,3.623a.939.939,0,1,0-.231,1.863,17.616,17.616,0,0,0,12.4-3.195Z" transform="translate(-85.773 -75.372)" fill="#00355e"/>
    </g>
  </g>
</svg>
