<svg id="Icon-clients" xmlns="http://www.w3.org/2000/svg" xmlns:xlink="http://www.w3.org/1999/xlink" width="58.049" height="55.864" viewBox="0 0 58.049 55.864">
  <defs>
    <clipPath id="clip-path">
      <rect id="Rectangle_2938" data-name="Rectangle 2938" width="58.049" height="55.864" fill="none"/>
    </clipPath>
  </defs>
  <g id="Group_12943" data-name="Group 12943" transform="translate(0 0)" clip-path="url(#clip-path)">
    <path id="Path_24637" data-name="Path 24637" d="M54.5,27.861a1.325,1.325,0,0,0-.949-1.113q-1.113-.419-2.222-.848-1.215-.466-2.431-.926a.4.4,0,0,1-.313-.35c-.23-1.014-.475-2.025-.72-3.034q-.215-.884-.426-1.768a1.347,1.347,0,0,0-.99-1.142h0a1.346,1.346,0,0,0-1.383.608l-.184.23c-.959,1.2-1.951,2.439-2.951,3.635a.562.562,0,0,1-.347.153c-1.429-.084-2.987-.2-4.9-.362a1.386,1.386,0,0,0-1.438.58,1.347,1.347,0,0,0,.179,1.55c.225.342.443.689.661,1.036.464.74.944,1.5,1.481,2.216.64.848.706,1.414.244,2.086a1.238,1.238,0,0,0-.149.316c-.011.028-.021.056-.032.084l-1.151,2.8-.335.815-.011.028-.007.029a1.372,1.372,0,0,0,.137,1.061,1.166,1.166,0,0,0,.744.522,1.485,1.485,0,0,0,.7-.021c1.951-.512,3.435-.914,4.813-1.306a.679.679,0,0,1,.326-.032.573.573,0,0,1,.259.153c.807.712,1.639,1.42,2.445,2.1q.651.553,1.3,1.109a1.591,1.591,0,0,0,.677.368,1.186,1.186,0,0,0,.771-.091,1.3,1.3,0,0,0,.729-1.217l.077-1.475c.062-1.153.123-2.307.168-3.459a.478.478,0,0,1,.268-.489c.975-.581,1.956-1.188,2.905-1.775q.654-.4,1.309-.807a1.313,1.313,0,0,0,.743-1.267m-7.679,3.713c-.021.843-.072,1.7-.12,2.534-.011.183-.022.366-.032.549l-1.936-1.645c-.07-.059-.142-.118-.214-.175-.132-.109-.265-.216-.388-.334a1.47,1.47,0,0,0-.7-.39,1.6,1.6,0,0,0-.8.042c-.847.24-1.7.465-2.548.69l-.7.186c.032-.085.065-.17.1-.253a18.109,18.109,0,0,1,.838-1.96,2.687,2.687,0,0,0-.269-3.215,13.423,13.423,0,0,1-1.109-1.8c-.039-.072-.078-.144-.118-.216l1.829.13.382.025c.35.022.68.043,1.011.087a1.455,1.455,0,0,0,1.416-.608c.588-.742,1.184-1.479,1.778-2.215l.321-.4c.067.272.131.531.194.789l.161.659c.142.575.288,1.168.414,1.753a1.551,1.551,0,0,0,1.06,1.23c.9.327,1.79.676,2.652,1.014l.3.116-.3.2c-.717.5-1.459,1.016-2.213,1.478a1.905,1.905,0,0,0-1.005,1.722" transform="translate(3.541 1.883)" fill="#4ebece"/>
    <path id="Path_24638" data-name="Path 24638" d="M35.857,27.11c-1.112-.48-2.235-.893-3.383-1.308a.309.309,0,0,1-.247-.279c-.132-.579-.272-1.157-.413-1.735-.131-.542-.263-1.083-.388-1.627a1.364,1.364,0,0,0-.972-1.155h0L30.43,21a1.38,1.38,0,0,0-1.4.637c-.764.961-1.454,1.825-2.171,2.674a.47.47,0,0,1-.255.139c-1.265-.065-2.494-.168-3.529-.26a1.338,1.338,0,0,0-1.384.6,1.319,1.319,0,0,0,.137,1.459c.19.291.378.585.564.877.383.6.778,1.224,1.207,1.816a.749.749,0,0,1,.07.9c-.34.757-.651,1.524-.951,2.265-.119.3-.238.586-.355.871L22.346,33l-.007.025a1.413,1.413,0,0,0,.126,1.1,1.156,1.156,0,0,0,.741.525,1.449,1.449,0,0,0,.682-.019c1.131-.288,2.305-.606,3.49-.944a.434.434,0,0,1,.218-.022.445.445,0,0,1,.189.113c.62.548,1.25,1.084,1.88,1.621l.819.7a1.569,1.569,0,0,0,.662.358.942.942,0,0,0,.806-.175,1.7,1.7,0,0,0,.64-1.084c.063-.679.1-1.369.131-2.035.026-.525.052-1.05.092-1.574a.507.507,0,0,1,.161-.291c.446-.29.9-.567,1.351-.844.579-.355,1.178-.721,1.753-1.111a1.235,1.235,0,0,0-.222-2.234m-5.55,4.6a6.42,6.42,0,0,1-.029.962c-.161-.134-.314-.261-.466-.39-.079-.066-.16-.132-.241-.2a6.192,6.192,0,0,1-.537-.47,1.71,1.71,0,0,0-.858-.51,1.8,1.8,0,0,0-.974.073c-.506.165-1.032.3-1.589.441l-.029.007c.007-.014.012-.029.018-.043.227-.57.44-1.109.676-1.632a1.524,1.524,0,0,0-.123-1.57c-.318-.494-.622-1-.936-1.518l-.018-.029c.471.026.92.055,1.364.123a1.93,1.93,0,0,0,2.078-.881c.266-.389.577-.76.906-1.153,0,.012.006.023.009.035.144.575.281,1.117.391,1.659a1.627,1.627,0,0,0,1.131,1.306c.526.183,1.047.384,1.6.6l.037.015a5.223,5.223,0,0,1-.87.525,2.434,2.434,0,0,0-1.538,2.647" transform="translate(2.173 2.117)" fill="#4ebece"/>
    <path id="Path_24639" data-name="Path 24639" d="M42.814,41.126l-.527-.2c-.671-.252-1.363-.514-2.034-.791a.379.379,0,0,1-.165-.193c-.111-.413-.211-.828-.31-1.243-.113-.47-.23-.957-.362-1.433a1.63,1.63,0,0,0-.324-.553c-.059-.078-.124-.162-.189-.257l-.164-.244-.248.157c-.1.062-.19.113-.276.161a1.739,1.739,0,0,0-.516.37c-.595.693-1.166,1.419-1.719,2.122a.237.237,0,0,1-.262.112c-.456-.043-.913-.077-1.37-.11-.421-.031-.84-.062-1.261-.1a.974.974,0,0,0-.957,1.6c.217.327.429.656.641.985.266.412.532.824.806,1.23a.26.26,0,0,1,.018.315c-.181.419-.352.841-.524,1.264-.161.393-.32.787-.488,1.178a1.013,1.013,0,0,0,.086,1.111.889.889,0,0,0,.5.316,1.315,1.315,0,0,0,.631-.043c.369-.1.738-.2,1.108-.3.493-.131.986-.263,1.478-.4a.3.3,0,0,1,.143-.014.31.31,0,0,1,.133.081c.375.329.755.654,1.136.979.279.239.558.477.836.718a1.392,1.392,0,0,0,.6.344.891.891,0,0,0,.562-.061,1.065,1.065,0,0,0,.584-1.039c.014-.319.032-.637.05-.957.03-.549.061-1.1.077-1.648,0-.128.028-.177.172-.264l.066-.039c.749-.446,1.523-.908,2.259-1.406a1.292,1.292,0,0,0,.482-.832c.028-.187.018-.652-.664-.911m-4.183,3c.006.405-.024.819-.055,1.256V45.4c-.3-.251-.593-.488-.854-.744a1.564,1.564,0,0,0-.756-.439,1.612,1.612,0,0,0-.891.075c-.341.118-.7.208-1.081.3l0-.006c.16-.4.309-.776.477-1.14A1.362,1.362,0,0,0,35.355,42c-.23-.334-.429-.684-.641-1.054.359.024.728.05,1.086.1a1.422,1.422,0,0,0,1.489-.628c.219-.314.469-.613.733-.93l.01.042c.116.468.224.905.321,1.344a1.106,1.106,0,0,0,.741.859c.434.157.864.326,1.3.5l.007,0c-.352.24-.686.466-1.035.673a1.31,1.31,0,0,0-.731,1.224" transform="translate(3.22 3.657)" fill="#4ebece"/>
    <path id="Path_24640" data-name="Path 24640" d="M32.426,53.116a1.377,1.377,0,0,0-1.031-.27c-.683.095-1.377.151-2.073.189v-1.8a1.391,1.391,0,1,0-2.781,0V52.9c-2.519-.641-4.906-3-6.834-6.825-.4-.784-.75-1.623-1.087-2.486.356-.069.71-.14,1.071-.2a1.391,1.391,0,1,0-.466-2.743c-.509.087-1.012.183-1.509.284a45.455,45.455,0,0,1-1.748-11.614,1.384,1.384,0,0,0,0-2.763,45.425,45.425,0,0,1,1.755-11.637,50.879,50.879,0,0,0,8.818.985v1.175a1.391,1.391,0,1,0,2.781,0V15.9a50.9,50.9,0,0,0,8.82-.985,41.208,41.208,0,0,1,1.165,5.121,1.391,1.391,0,1,0,2.746-.445,43.9,43.9,0,0,0-1.2-5.316,34.384,34.384,0,0,0,6.42-2.407,25.192,25.192,0,0,1,3.458,5.426,1.391,1.391,0,0,0,2.52-1.178,27.936,27.936,0,1,0-25.316,39.75,28.342,28.342,0,0,0,3.844-.262,1.391,1.391,0,0,0,.651-2.486M8.583,43.981A25.03,25.03,0,0,1,2.822,29.322H13.189A48.483,48.483,0,0,0,15.01,41.575a34.674,34.674,0,0,0-6.426,2.406M2.822,26.541A25.023,25.023,0,0,1,8.6,11.869a34.42,34.42,0,0,0,6.419,2.4,48.447,48.447,0,0,0-1.827,12.268ZM19.708,9.791c1.928-3.823,4.315-6.185,6.834-6.826V13.118a48.405,48.405,0,0,1-7.914-.857c.334-.859.687-1.692,1.08-2.471m9.615-6.827c2.37.6,4.221,2.648,5.421,4.413a24.5,24.5,0,0,1,2.49,4.885,48.392,48.392,0,0,1-7.912.857ZM35.6,3.987a24.966,24.966,0,0,1,6.009,2.835,25.255,25.255,0,0,1,3.683,2.928,32.838,32.838,0,0,1-5.308,1.882A24.656,24.656,0,0,0,35.6,3.987M17.225,8.538a31.336,31.336,0,0,0-1.33,3.1,32.79,32.79,0,0,1-5.316-1.883A25.168,25.168,0,0,1,20.217,4a21.709,21.709,0,0,0-2.992,4.542M15.89,44.218a31.559,31.559,0,0,0,1.334,3.108,21.709,21.709,0,0,0,2.992,4.542,25.179,25.179,0,0,1-9.64-5.757,32.839,32.839,0,0,1,5.313-1.893" transform="translate(0 0)" fill="#00355e"/>
  </g>
</svg>
