<svg xmlns="http://www.w3.org/2000/svg" width="22.989" height="17.241" viewBox="0 0 22.989 17.241">
  <path id="icon-envelope" d="M20.833,64H2.155A2.156,2.156,0,0,0,0,66.155V79.086a2.156,2.156,0,0,0,2.155,2.155H20.833a2.156,2.156,0,0,0,2.155-2.155V66.155A2.156,2.156,0,0,0,20.833,64ZM2.155,65.437H20.833a.721.721,0,0,1,.718.718v1.859c-.983.831-2.389,1.976-6.762,5.446-.759.6-2.254,2.052-3.3,2.034-1.042.018-2.541-1.432-3.3-2.034C3.825,69.99,2.42,68.845,1.437,68.014V66.155A.721.721,0,0,1,2.155,65.437ZM20.833,79.8H2.155a.721.721,0,0,1-.718-.718v-9.2c1.024.84,2.64,2.137,5.868,4.7.92.736,2.546,2.357,4.189,2.348,1.634.013,3.246-1.594,4.189-2.348,3.228-2.564,4.845-3.861,5.868-4.7v9.2A.721.721,0,0,1,20.833,79.8Z" transform="translate(0 -64)" fill="#4ebece"/>
</svg>
