<svg id="Icon-DRG" xmlns="http://www.w3.org/2000/svg" xmlns:xlink="http://www.w3.org/1999/xlink" width="44" height="46.24" viewBox="0 0 44 46.24">
  <defs>
    <clipPath id="clip-path">
      <rect id="Rectangle_5568" data-name="Rectangle 5568" width="44" height="46.24" fill="none"/>
    </clipPath>
    <clipPath id="clip-path-3">
      <rect id="Rectangle_5566" data-name="Rectangle 5566" width="7.628" height="39.01" fill="none"/>
    </clipPath>
  </defs>
  <g id="Group_19932" data-name="Group 19932" clip-path="url(#clip-path)">
    <g id="Group_19931" data-name="Group 19931" transform="translate(0 0)">
      <g id="Group_19930" data-name="Group 19930" clip-path="url(#clip-path)">
        <path id="Path_32677" data-name="Path 32677" d="M16.689,0h.9a2.808,2.808,0,0,1,1.947,1.472.526.526,0,0,0,.583.34c1.2-.012,2.408-.011,3.612,0a.905.905,0,0,1,.991.977c.008.265,0,.531,0,.827h.546c1.806,0,2.511,0,4.317,0A4.516,4.516,0,0,1,34.283,8.3c0,1.836,0,3.672,0,5.508,0,.155.013.31.023.522.779-.442,1.5-.84,2.208-1.263a.645.645,0,0,0,.216-.366c.275-.984.535-1.972.8-2.958a.932.932,0,0,1,1.323-.753c.315.08.63.158.962.241.059-.2.108-.359.151-.516.421-1.568.838-3.135,1.263-4.7a.909.909,0,1,1,1.735.472c-.322,1.22-.652,2.438-.977,3.658-.138.516-.27,1.033-.409,1.57.339.09.628.164.916.244.768.213,1,.612.8,1.374-.248.945-.523,1.882-.748,2.831a1.1,1.1,0,0,0,.1.707c.342.651.719,1.286,1.112,1.908a1.45,1.45,0,0,1,.173,1.241Q42,25.156,40.1,32.3c-.26.968-.515,1.936-.773,2.912.142.052.242.083.337.125a.895.895,0,0,1-.5,1.713,3.806,3.806,0,0,1-.394-.1l-2.278-.6-1.643,6.141c.244.069.431.12.616.177a.906.906,0,1,1-.472,1.742c-.365-.085-.723-.211-1.091-.278a.475.475,0,0,0-.394.134,4.64,4.64,0,0,1-4.039,1.97c-5.116-.016-9.133-.006-14.249-.006-3.913,0-6.725.006-10.638,0A4.507,4.507,0,0,1,.229,43.116c-.083-.253-.153-.509-.229-.764V7.5a.383.383,0,0,0,.07-.109A4.506,4.506,0,0,1,4.8,3.612c1.789,0,2.477,0,4.267,0h.492V3.1c0-1.026.261-1.289,1.271-1.289h3.76A2.892,2.892,0,0,1,16.689,0M31.746,43.561c-.185-.055-.321-.1-.461-.138-1.044-.283-2.091-.553-3.132-.847a.9.9,0,0,1-.7-1.09.915.915,0,0,1,1.161-.653c.212.046.421.108.65.167l1.642-6.149c-.761-.207-1.462-.378-2.148-.592a1.879,1.879,0,0,1-.9-.442,2.6,2.6,0,0,1-.264-.988H15.168c-1.159,0-1.188-.027-1.187-1.189,0-.875.1-.978.993-.978H27.118c.106,0,.211,0,.317,0a.57.57,0,0,1,.633.648c0,.384,0,.769,0,1.114h.949c.044-.132.09-.256.124-.383q1.534-5.724,3.065-11.45a5.361,5.361,0,0,0,.261-1.318c.021-3.656.014-7.313.011-10.97A2.71,2.71,0,0,0,29.6,5.419c-1.836,0-2.572,0-4.408,0-.145,0-.29.013-.413.02-.026.051-.038.064-.038.076-.005.482,0,.964-.014,1.444a.9.9,0,0,1-.983.984q-6.592.008-13.183,0a.912.912,0,0,1-1-1.016c-.008-.492,0-.983,0-1.509h-.54c-1.76,0-2.421,0-4.182,0A2.741,2.741,0,0,0,1.808,8.429q0,16.479,0,32.957a2.747,2.747,0,0,0,3.044,3.042H29.424c.166,0,.332.006.5-.007a2.671,2.671,0,0,0,1.826-.86m8.5-18.865c.046-.145.076-.229.1-.313.553-2.058,1.093-4.12,1.67-6.171a1.206,1.206,0,0,0-.146-1.091c-.347-.525-.539-1.225-1-1.581s-1.223-.352-1.815-.594a2.508,2.508,0,0,0-2.753.328c-.207.169-.474.261-.7.413a.688.688,0,0,0-.282.319c-.178.6-.328,1.21-.494,1.839.256.074.484.142.714.2.246.068.495.123.739.2a.906.906,0,1,1-.487,1.735c-.473-.119-.945-.243-1.443-.373-.3,1.116-.583,2.183-.875,3.274L40.246,24.7m-.45,1.751L33,24.627c-.3,1.1-.583,2.168-.881,3.278.473.128.925.229,1.361.376a1.584,1.584,0,0,1,.647.371.8.8,0,0,1,.07,1.005.885.885,0,0,1-1.057.4c-.491-.116-.976-.254-1.493-.391-.3,1.124-.584,2.188-.875,3.279l6.793,1.816c.748-2.789,1.481-5.524,2.228-8.312M11.4,3.612v2.5H22.893v-2.5c-1.258,0-2.489,0-3.72,0-.749,0-1.019-.236-1.133-.981a.9.9,0,0,0-1.8,0c-.122.769-.377.986-1.172.986-1.217,0-2.433,0-3.675,0m21.259,31.7c-.552,2.063-1.1,4.1-1.65,6.158l2.093.553c.557-2.077,1.1-4.089,1.649-6.149l-2.092-.562m8.716-23.784-2.288-.608c-.184.7-.355,1.359-.532,2.034l2.28.6c.185-.691.353-1.325.54-2.026" transform="translate(0 0)" fill="#16375b"/>
        <path id="Path_32678" data-name="Path 32678" d="M37.2,23.361l-6.775-1.816.875-3.272c.5.129.97.253,1.444.373a.906.906,0,1,0,.487-1.735c-.244-.074-.494-.13-.74-.2-.229-.064-.458-.132-.714-.206.166-.628.316-1.238.494-1.839a.7.7,0,0,1,.283-.319c.222-.151.489-.243.7-.411a2.508,2.508,0,0,1,2.753-.328c.592.242,1.339.23,1.815.594s.658,1.055,1.005,1.581a1.2,1.2,0,0,1,.145,1.09c-.576,2.052-1.117,4.114-1.67,6.172-.023.085-.053.168-.1.313" transform="translate(3.043 1.335)" fill="#4ebece"/>
        <path id="Path_32679" data-name="Path 32679" d="M37,24.208,34.771,32.52,27.977,30.7l.876-3.279c.517.136,1,.275,1.493.392a.884.884,0,0,0,1.056-.4.8.8,0,0,0-.07-1,1.574,1.574,0,0,0-.647-.372c-.436-.147-.888-.249-1.361-.376.3-1.11.585-2.175.881-3.278L37,24.208" transform="translate(2.798 2.239)" fill="#4ebece"/>
        <path id="Path_32680" data-name="Path 32680" d="M10.362,3.448c1.242,0,2.458,0,3.674,0,.794,0,1.049-.217,1.173-.987a.9.9,0,0,1,1.8.005c.114.744.383.979,1.133.98,1.231,0,2.461,0,3.72,0V5.954H10.362Z" transform="translate(1.036 0.164)" fill="#4ebece"/>
        <path id="Path_32681" data-name="Path 32681" d="M29.838,32.106l2.092.562c-.552,2.059-1.092,4.072-1.649,6.149l-2.093-.553,1.65-6.158" transform="translate(2.819 3.21)" fill="#4ebece"/>
        <path id="Path_32682" data-name="Path 32682" d="M37.868,10.539c-.187.7-.355,1.335-.54,2.026l-2.28-.6c.177-.675.349-1.333.532-2.034l2.288.608" transform="translate(3.505 0.993)" fill="#4ebece"/>
        <path id="Path_32683" data-name="Path 32683" d="M19.766,21.383q-3.133,0-6.268,0c-.606,0-.779-.172-.788-.768-.022-1.4-.021-1.4,1.385-1.4H25.909c.761,0,.885.126.888.89,0,1.277,0,1.277-1.26,1.277H19.766" transform="translate(1.271 1.921)" fill="#16375b"/>
        <path id="Path_32684" data-name="Path 32684" d="M19.765,10.569q3.089,0,6.176,0c.726,0,.851.124.855.827.007,1.34.007,1.34-1.341,1.34H13.6c-.742,0-.888-.148-.889-.9,0-1.264,0-1.264,1.24-1.264h5.816" transform="translate(1.271 1.057)" fill="#16375b"/>
        <path id="Path_32685" data-name="Path 32685" d="M16.242,25c-.932,0-1.863,0-2.794,0-.542,0-.724-.185-.737-.727-.038-1.423-.023-1.439,1.385-1.439q2.432,0,4.864,0c.636,0,.789.158.793.8C19.764,25,19.764,25,18.4,25H16.242" transform="translate(1.27 2.283)" fill="#16375b"/>
        <path id="Path_32686" data-name="Path 32686" d="M16.23,16.348c-.9,0-1.8,0-2.7,0-.635,0-.812-.175-.82-.791-.018-1.375-.018-1.375,1.351-1.375q2.432,0,4.863,0c.694,0,.825.131.829.8.009,1.363.009,1.363-1.361,1.363H16.23" transform="translate(1.271 1.418)" fill="#16375b"/>
        <path id="Path_32687" data-name="Path 32687" d="M16.26,31.849c.9,0,1.805,0,2.708,0,.631,0,.778.153.785.767.015,1.4.015,1.4-1.372,1.4q-2.416,0-4.83,0c-.692,0-.838-.154-.842-.857C12.7,31.849,12.7,31.849,14,31.849H16.26" transform="translate(1.271 3.185)" fill="#16375b"/>
        <path id="Path_32688" data-name="Path 32688" d="M8.767,10.5A3.425,3.425,0,1,1,5.351,13.92,3.427,3.427,0,0,1,8.767,10.5m0,.684a2.74,2.74,0,1,0,2.746,2.75,2.749,2.749,0,0,0-2.746-2.75" transform="translate(0.535 1.05)" fill="#16375b"/>
        <path id="Path_32689" data-name="Path 32689" d="M10.033,12.443c.207.2.361.343.563.538a3.132,3.132,0,0,0-.3.23c-.567.561-1.13,1.128-1.7,1.692-.267.267-.409.265-.681-.006l-.916-.914.5-.449.715.745,1.81-1.836" transform="translate(0.701 1.244)" fill="#16375b"/>
        <path id="Path_32690" data-name="Path 32690" d="M8.767,18.5A3.425,3.425,0,1,1,5.351,21.92,3.427,3.427,0,0,1,8.767,18.5m0,.684a2.74,2.74,0,1,0,2.746,2.75,2.749,2.749,0,0,0-2.746-2.75" transform="translate(0.535 1.85)" fill="#16375b"/>
        <path id="Path_32691" data-name="Path 32691" d="M10.033,20.443c.207.2.361.343.563.538a3.131,3.131,0,0,0-.3.23c-.567.561-1.13,1.127-1.7,1.692-.267.267-.409.265-.681-.006l-.916-.914.5-.449.715.745,1.81-1.836" transform="translate(0.701 2.044)" fill="#16375b"/>
        <path id="Path_32692" data-name="Path 32692" d="M8.767,27.5A3.425,3.425,0,1,1,5.351,30.92,3.427,3.427,0,0,1,8.767,27.5m0,.684a2.74,2.74,0,1,0,2.746,2.75,2.749,2.749,0,0,0-2.746-2.75" transform="translate(0.535 2.75)" fill="#16375b"/>
        <path id="Path_32693" data-name="Path 32693" d="M9.383,29.374l.587.56L7.8,32.1l-.593-.5s1.728-1.774,2.173-2.224" transform="translate(0.721 2.937)" fill="#16375b"/>
        <path id="Path_32694" data-name="Path 32694" d="M7.8,29.374l-.587.56L9.376,32.1l.593-.5S8.241,29.824,7.8,29.374" transform="translate(0.721 2.937)" fill="#16375b"/>
        <g id="Group_19929" data-name="Group 19929" transform="translate(1.807 5.418)" opacity="0.2">
          <g id="Group_19928" data-name="Group 19928">
            <g id="Group_19927" data-name="Group 19927" clip-path="url(#clip-path-3)">
              <path id="Path_32695" data-name="Path 32695" d="M3.091,40.894V7.937c0-1.922.722-3.011,1.992-3.012H3.635c-1.27,0-1.992,1.09-1.992,3.012V40.894c0,1.958.714,3.042,2,3.042H5.094c-1.29,0-2-1.084-2-3.042" transform="translate(-1.643 -4.925)" fill="#16375b"/>
            </g>
          </g>
        </g>
      </g>
    </g>
  </g>
</svg>
