<svg xmlns="http://www.w3.org/2000/svg" width="19.521" height="19.521" viewBox="0 0 19.521 19.521">
  <path id="icon-phone-alt" d="M18.8,13.4l-4.133-1.773a1.2,1.2,0,0,0-1.392.339l-1.681,2.055A13.345,13.345,0,0,1,5.509,7.935L7.564,6.254A1.2,1.2,0,0,0,7.9,4.863L6.131.726A1.2,1.2,0,0,0,4.766.036L.922.924A1.184,1.184,0,0,0,0,2.083,17.439,17.439,0,0,0,17.443,19.526a1.191,1.191,0,0,0,1.163-.927l.884-3.839A1.19,1.19,0,0,0,18.8,13.4Zm-1.38,4.907a16.214,16.214,0,0,1-16.2-16.2l3.8-.877L6.775,5.327,4,7.6a14.733,14.733,0,0,0,7.934,7.934L14.2,12.755,18.3,14.509Z" transform="translate(0 -0.005)" fill="#4ebece"/>
</svg>
