<svg xmlns="http://www.w3.org/2000/svg" xmlns:xlink="http://www.w3.org/1999/xlink" width="44" height="48.512" viewBox="0 0 44 48.512">
  <defs>
    <clipPath id="clip-path">
      <rect id="Rectangle_5574" data-name="Rectangle 5574" width="44" height="48.512" fill="none"/>
    </clipPath>
  </defs>
  <g id="Icon-PBM" transform="translate(0 0)">
    <g id="Group_19944" data-name="Group 19944" transform="translate(0 0)" clip-path="url(#clip-path)">
      <path id="Path_32729" data-name="Path 32729" d="M22.692,46.888h-.416a4.835,4.835,0,0,1,0-9.671h3.282V34.1h1.97v3.122H34.7a3.9,3.9,0,0,0,3.882-2.9l1.909.486A5.844,5.844,0,0,1,34.7,39.187H27.527v2.866A4.841,4.841,0,0,1,22.692,46.888Zm-.416-7.7a2.866,2.866,0,1,0,0,5.733h.416a2.869,2.869,0,0,0,2.866-2.866V39.186Z" transform="translate(0.831 1.624)" fill="#00355e"/>
      <path id="Path_32730" data-name="Path 32730" d="M38.174,34.318a3.9,3.9,0,0,1-3.885,2.9H27.114V34.1H26.087V45.028a4.806,4.806,0,0,0,1.027-2.976V39.185H34.29A5.842,5.842,0,0,0,40.081,34.8Z" transform="translate(1.242 1.624)" fill="#00355e"/>
      <path id="Path_32731" data-name="Path 32731" d="M38.832,29.87a2.45,2.45,0,1,1-2.45,2.45,2.45,2.45,0,0,1,2.45-2.45" transform="translate(1.732 1.423)" fill="#00355e"/>
      <path id="Path_32732" data-name="Path 32732" d="M38.877,35.8a3.435,3.435,0,1,1,3.435-3.435A3.44,3.44,0,0,1,38.877,35.8m0-4.9a1.466,1.466,0,1,0,1.466,1.466A1.466,1.466,0,0,0,38.877,30.9" transform="translate(1.688 1.378)" fill="#4ebece"/>
      <path id="Path_32733" data-name="Path 32733" d="M26.486,35.971a8.806,8.806,0,0,1-8.8-8.8V18.517a3.163,3.163,0,0,1,3.16-3.16H21.8v1.97h-.955a1.191,1.191,0,0,0-1.19,1.19v8.66a6.828,6.828,0,0,0,13.656,0V18.636a1.191,1.191,0,0,0-1.191-1.191h-.973V15.476h.973a3.163,3.163,0,0,1,3.16,3.16v8.54a8.8,8.8,0,0,1-8.795,8.795" transform="translate(0.842 0.732)" fill="#4ebece"/>
      <path id="Path_32734" data-name="Path 32734" d="M31.722,15.471h-.974v1.97h.974a1.191,1.191,0,0,1,1.191,1.191v8.539a6.835,6.835,0,0,1-6.826,6.823v1.97a8.8,8.8,0,0,0,8.8-8.8V18.632a3.163,3.163,0,0,0-3.163-3.161" transform="translate(1.242 0.737)" fill="#4ebece"/>
      <path id="Path_32735" data-name="Path 32735" d="M29.168,14.324a2.067,2.067,0,0,0,0,4.135h2.024V14.324Z" transform="translate(1.291 0.682)" fill="#00355e"/>
      <path id="Path_32736" data-name="Path 32736" d="M23.173,14.324H21.149v4.135h2.024a2.067,2.067,0,0,0,0-4.135" transform="translate(1.007 0.682)" fill="#00355e"/>
      <path id="Path_32737" data-name="Path 32737" d="M25.28,0H18.941l-.03.361c-.081.97-.162,1.94-.261,2.909a.888.888,0,0,1-.551.635c-.549.234-1.1.462-1.648.69-.764.317-1.527.635-2.286.965a.944.944,0,0,1-1.018-.138c-.633-.522-1.273-1.033-1.893-1.528l-.351-.28L3.523,10.994l2.188,2.679L4.263,17.046a1.421,1.421,0,0,0-.124.332,1.6,1.6,0,0,1-1.812,1.505c-.617.018-1.252.1-1.866.181-.154.021-.307.041-.461.06V29.556l.434.036c.947.08,1.894.158,2.838.26.349.038.562.418.657.641q.289.684.569,1.369c.316.769.633,1.538.974,2.3a1.093,1.093,0,0,1-.14,1.318c-.5.579-.971,1.179-1.417,1.743l-.284.357,7.385,7.383s5.248-5.051,7.523-7.2a.9.9,0,0,0-.224-1.469A13.48,13.48,0,0,1,10.858,25.04a12.876,12.876,0,0,1,2.8-8.995,13.5,13.5,0,0,1,11.639-5.216Zm-14.2,42.227L6.353,37.5l.687-.863c.4-.5.811-1.021,1.235-1.524a.48.48,0,0,0,.083-.117S8.343,34.96,8.3,34.9a19.2,19.2,0,0,1-2.846-6.8.284.284,0,0,0-.043-.126.409.409,0,0,0-.164-.031c-.665-.052-1.33-.117-2-.183l-1.164-.113V20.974l1.095-.122c.575-.064,1.153-.129,1.732-.184A2.756,2.756,0,0,0,5.4,20.6c.012-.031.064-.266.1-.423a19.1,19.1,0,0,1,2.688-6.4c.131-.2.129-.224-.036-.408-.417-.465-.808-.953-1.187-1.429l-.677-.839L11.026,6.37l.859.687c.515.411,1.047.834,1.566,1.269a.362.362,0,0,0,.072.051,18.963,18.963,0,0,1,6.955-2.931c.056-.026.065-.134.069-.181.059-.66.122-1.322.185-1.992L20.844,2.1h2.332V8.766L22.8,8.8a15.507,15.507,0,0,0-7,28.424l.049.032Z" transform="translate(0 0)" fill="#00355e"/>
      <path id="Path_32738" data-name="Path 32738" d="M10.99,42.132,6.258,37.4l.687-.863c.4-.5.811-1.021,1.235-1.524a.48.48,0,0,0,.083-.117s-.015-.032-.053-.091a19.2,19.2,0,0,1-2.846-6.8.284.284,0,0,0-.043-.126.409.409,0,0,0-.164-.031c-.665-.052-1.33-.117-2-.183l-1.164-.113V20.879l1.095-.122c.575-.064,1.153-.129,1.732-.184a2.756,2.756,0,0,0,.491-.068c.012-.031.064-.266.1-.423a19.1,19.1,0,0,1,2.688-6.4c.131-.2.129-.224-.036-.408-.417-.465-.808-.953-1.187-1.429L6.2,11.011l4.735-4.736.859.687c.515.411,1.047.834,1.566,1.269a.362.362,0,0,0,.072.051A18.963,18.963,0,0,1,20.384,5.35c.056-.026.065-.134.069-.181.059-.66.122-1.322.185-1.992L20.75,2h2.332V8.671L22.7,8.7a15.507,15.507,0,0,0-7,28.424l.049.032Z" transform="translate(0.095 0.096)" fill="#4ebece"/>
    </g>
  </g>
</svg>
