<svg id="Icon-Medical_Coding" data-name="Icon-Medical Coding" xmlns="http://www.w3.org/2000/svg" xmlns:xlink="http://www.w3.org/1999/xlink" width="44" height="43.97" viewBox="0 0 44 43.97">
  <defs>
    <clipPath id="clip-path">
      <rect id="Rectangle_5596" data-name="Rectangle 5596" width="44" height="43.97" transform="translate(0 0)" fill="none"/>
    </clipPath>
  </defs>
  <g id="Group_19956" data-name="Group 19956" clip-path="url(#clip-path)">
    <path id="Path_32768" data-name="Path 32768" d="M0,21.739c.047-.069.094-.138.143-.206a.813.813,0,0,1,.966-.352.853.853,0,0,1,0,1.63.813.813,0,0,1-.967-.35c-.049-.067-.1-.137-.143-.2v-.517" fill="#00355e"/>
    <path id="Path_32769" data-name="Path 32769" d="M12.922,12.479a14.186,14.186,0,0,1-.009,19.048c.407.492.837.969,1.22,1.483a11.294,11.294,0,0,1,2.279,8.45,2.9,2.9,0,0,1-5.774-.245c-.017-.5,0-1,0-1.531H5.948c0,.381-.021.75,0,1.116a2.905,2.905,0,1,1-5.791.475,11.521,11.521,0,0,1,3.2-9.369l.262-.29c-.669-1.009-1.361-1.956-1.944-2.966a15.627,15.627,0,0,1-.974-2.241c-.264-.691-.08-1.19.439-1.367s.949.11,1.18.809a12.364,12.364,0,0,0,2.638,4.511L6.9,28.99c-.263-.32-.527-.619-.767-.936a10.009,10.009,0,0,1,2.451-14.4,16.135,16.135,0,0,0,3.954-3.4A9.6,9.6,0,0,0,14.7,2.784a1.148,1.148,0,0,0-1.3-1.03A1.122,1.122,0,0,0,12.365,3c.379,3.736-1.494,6.268-4.409,8.193A13.3,13.3,0,0,0,3.445,15.7a25.011,25.011,0,0,0-1.157,2.58c-.205.488-.469.722-.907.7a.857.857,0,0,1-.737-1.22,13.926,13.926,0,0,1,2.7-4.9c.111-.131.224-.26.343-.4-.415-.5-.845-.979-1.229-1.493A11.4,11.4,0,0,1,.095,3.343,3.254,3.254,0,0,1,1.444.516,2.77,2.77,0,0,1,4.492.4,2.778,2.778,0,0,1,5.956,3.083c-.014.4-.038.8-.06,1.228h4.8c-.016-.386-.029-.754-.049-1.121a2.9,2.9,0,1,1,5.784-.466,11.476,11.476,0,0,1-3.142,9.306c-.106.117-.213.232-.318.35a.5.5,0,0,0-.046.1M9.681,15.011c.1.113.173.2.249.282a10.057,10.057,0,0,1,1.134,11.87,11.007,11.007,0,0,1-3.643,3.581,12.489,12.489,0,0,0-4.606,4.935,9.233,9.233,0,0,0-.929,5.51,1.18,1.18,0,0,0,2.349-.218c-.006-.172-.02-.344-.032-.516A7.139,7.139,0,0,1,5.31,36.072,12.189,12.189,0,0,1,9.219,32.4a12.384,12.384,0,0,0,4.87-14.767,11.815,11.815,0,0,0-2.464-3.995L9.681,15.011m-2.8-5.186a7.813,7.813,0,0,1-2.655-6.86A1.112,1.112,0,0,0,3.156,1.752,1.164,1.164,0,0,0,1.884,2.819,9.281,9.281,0,0,0,3.03,8.745a10.693,10.693,0,0,0,1.907,2.483l1.947-1.4M9.717,34.167a9.4,9.4,0,0,1,2.005,2.688,7.486,7.486,0,0,1,.647,4.022,1.151,1.151,0,0,0,1.045,1.364A1.131,1.131,0,0,0,14.7,41.113a13.958,13.958,0,0,0-.02-2.57,10,10,0,0,0-3.019-5.783L9.717,34.167M5.9,23.462h4.79V20.54H5.9ZM6.307,37.9h3.985A7.341,7.341,0,0,0,8.3,35.213,7.427,7.427,0,0,0,6.307,37.9M10.281,6.084H6.312a7.264,7.264,0,0,0,1.978,2.7,7.233,7.233,0,0,0,1.991-2.7M8.292,16.078a8.115,8.115,0,0,0-1.8,2.674h3.622a8.091,8.091,0,0,0-1.821-2.674m1.87,9.291c-.042-.044-.085-.087-.127-.13H6.491a7.7,7.7,0,0,0,1.889,2.74l1.782-2.61" fill="#00355e"/>
    <path id="Path_32770" data-name="Path 32770" d="M19.351,37.349c0-.674.006-1.348,0-2.022a1.018,1.018,0,0,1,.568-.979c1-.56,1.983-1.144,2.979-1.707a.5.5,0,0,0,.3-.506c-.014-1.133,0-2.267-.011-3.4a1.029,1.029,0,0,1,.575-1.011q1.778-1,3.533-2.037a1.017,1.017,0,0,1,1.128-.007c.974.573,1.961,1.124,2.932,1.7a.558.558,0,0,0,.661,0c.971-.58,1.96-1.128,2.934-1.7a.992.992,0,0,1,1.09-.01c1.2.7,2.4,1.4,3.607,2.079a1.022,1.022,0,0,1,.537,1c-.007,1.076.018,2.152-.013,3.227a.735.735,0,0,0,.454.766c.93.506,1.834,1.06,2.759,1.574A1.1,1.1,0,0,1,44,35.388c-.019,1.334-.017,2.668,0,4a1.073,1.073,0,0,1-.607,1.042q-1.74.978-3.458,1.995a1.085,1.085,0,0,1-1.239,0c-.954-.577-1.936-1.11-2.894-1.682a.519.519,0,0,0-.617.007c-.96.57-1.939,1.107-2.9,1.681a1.085,1.085,0,0,1-1.24-.01c-.955-.577-1.933-1.115-2.9-1.682a.489.489,0,0,0-.579-.006c-.971.579-1.962,1.124-2.932,1.7a1.066,1.066,0,0,1-1.2,0q-1.714-1.02-3.457-1.995a1.118,1.118,0,0,1-.636-1.114c.02-.66,0-1.32,0-1.98m22.883.036h.041c0-.458-.013-.917,0-1.375a.486.486,0,0,0-.285-.51q-1.218-.674-2.413-1.392a.453.453,0,0,0-.539.007c-.8.476-1.6.942-2.414,1.39a.493.493,0,0,0-.283.511c.012.917-.008,1.834.017,2.75a.657.657,0,0,0,.261.456c.414.279.857.515,1.291.763.459.261.923.724,1.381.72.476,0,.948-.463,1.422-.723.025-.013.049-.029.073-.044.481-.281,1.157-.453,1.39-.873s.053-1.11.053-1.679m-3.778-6.6c0-.473.023-.947-.013-1.417a.672.672,0,0,0-.267-.462c-.8-.492-1.624-.959-2.451-1.413a.551.551,0,0,0-.453,0q-1.259.692-2.489,1.434a.559.559,0,0,0-.231.4q-.03,1.44,0,2.88a.556.556,0,0,0,.228.4q1.229.742,2.487,1.437a.552.552,0,0,0,.457,0c.826-.454,1.645-.923,2.45-1.415a.678.678,0,0,0,.269-.461c.036-.456.013-.916.013-1.375M26.991,37.366c0-.474.016-.948-.01-1.42a.57.57,0,0,0-.217-.4c-.833-.5-1.678-.987-2.528-1.46a.457.457,0,0,0-.381-.007q-1.293.721-2.563,1.484a.51.51,0,0,0-.213.364q-.027,1.441,0,2.883a.554.554,0,0,0,.23.4q1.23.746,2.49,1.438a.6.6,0,0,0,.492-.007c.816-.446,1.611-.931,2.425-1.38A.483.483,0,0,0,27,38.743c-.014-.459,0-.918,0-1.377m7.641.043c0-.473.022-.947-.012-1.417a.667.667,0,0,0-.252-.466c-.8-.493-1.623-.96-2.448-1.415a.551.551,0,0,0-.451-.017q-1.276.7-2.523,1.456a.551.551,0,0,0-.226.4q-.03,1.417,0,2.835a.6.6,0,0,0,.242.429q1.208.735,2.45,1.411a.639.639,0,0,0,.526,0q1.223-.663,2.412-1.391a.664.664,0,0,0,.268-.454c.036-.455.013-.915.013-1.373m-9.688-6.682H24.9c0,.488-.016.976.011,1.462a.563.563,0,0,0,.217.4q1.248.756,2.526,1.459a.505.505,0,0,0,.42-.007c.838-.464,1.669-.941,2.487-1.439a.6.6,0,0,0,.247-.43c.022-.932,0-1.864.018-2.8a.5.5,0,0,0-.308-.5c-.674-.375-1.365-.73-2-1.165a.99.99,0,0,0-1.331.013,7.788,7.788,0,0,1-.851.5c-.466.276-1.119.454-1.343.865-.233.429-.052,1.084-.052,1.64" fill="#00355e"/>
    <path id="Path_32771" data-name="Path 32771" d="M19.35,5.467c0-.6-.012-1.2,0-1.807A3.182,3.182,0,0,1,22.481.485a3.151,3.151,0,0,1,3.177,3.073c.05,1.274.047,2.553,0,3.827a3.126,3.126,0,0,1-3.247,3.078,3.16,3.16,0,0,1-3.061-3.19c-.012-.6,0-1.2,0-1.806m1.718.006V7.238a1.446,1.446,0,0,0,1.436,1.5A1.427,1.427,0,0,0,23.95,7.251q.024-1.764,0-3.529a1.443,1.443,0,1,0-2.881.029c-.008.574,0,1.148,0,1.722" fill="#00355e"/>
    <path id="Path_32772" data-name="Path 32772" d="M43.926,17.981a16.034,16.034,0,0,1-.021,2.442A3.065,3.065,0,0,1,40.5,22.947a3.1,3.1,0,0,1-2.787-2.992q-.057-1.975,0-3.955a3.119,3.119,0,0,1,3.176-3.011,3.157,3.157,0,0,1,3.105,3.1c.013.63,0,1.261,0,1.892h-.066m-4.514-.017c0,.6-.01,1.2,0,1.807a1.43,1.43,0,1,0,2.859-.012q.014-1.786,0-3.571a1.44,1.44,0,0,0-1.417-1.478,1.42,1.42,0,0,0-1.44,1.447c-.015.6,0,1.2,0,1.807" fill="#00355e"/>
    <path id="Path_32773" data-name="Path 32773" d="M32.808,5.472a17.839,17.839,0,0,1,.018-2.359,3.122,3.122,0,0,1,6.189.186,34.69,34.69,0,0,1,0,4.338,3.065,3.065,0,0,1-3.291,2.825,3.151,3.151,0,0,1-2.972-3.055c-.024-.644,0-1.29,0-1.935h.057m1.658.007V7.244a1.441,1.441,0,0,0,1.4,1.5,1.417,1.417,0,0,0,1.48-1.453q.036-1.807,0-3.616a1.434,1.434,0,0,0-1.433-1.466,1.462,1.462,0,0,0-1.441,1.506c-.009.588,0,1.177,0,1.765" fill="#00355e"/>
    <path id="Path_32774" data-name="Path 32774" d="M25.642,18.006a19.977,19.977,0,0,1-.013,2.148,3.142,3.142,0,0,1-6.264-.224c-.049-1.3-.051-2.61,0-3.913a3.151,3.151,0,0,1,6.3.1c.023.63,0,1.261,0,1.892h-.028m-4.574-.055c0,.588-.007,1.177,0,1.765a1.442,1.442,0,1,0,2.881.012q.02-1.743,0-3.486a1.445,1.445,0,1,0-2.882.03c-.006.56,0,1.119,0,1.679" fill="#00355e"/>
    <path id="Path_32775" data-name="Path 32775" d="M28.756,2.369c-.327,0-.6.012-.866,0a.835.835,0,0,1-.827-.819.824.824,0,0,1,.763-.88,16.053,16.053,0,0,1,1.887,0,.783.783,0,0,1,.737.722,2.176,2.176,0,0,1,.023.342q0,3.743,0,7.484c0,.071,0,.143-.005.214a.855.855,0,0,1-.875.867.829.829,0,0,1-.832-.9c-.013-1.262-.006-2.523-.006-3.785V2.369" fill="#00355e"/>
    <path id="Path_32776" data-name="Path 32776" d="M28.7,15.026c-.341,0-.613.014-.883,0a.859.859,0,0,1-.813-.8.821.821,0,0,1,.708-.887,13.662,13.662,0,0,1,2.013.006c.461.037.692.424.693.985q0,2.86,0,5.721c0,.646,0,1.291,0,1.936,0,.6-.331.968-.854.97A.851.851,0,0,1,28.7,22q-.006-3.227,0-6.453v-.516" fill="#00355e"/>
    <path id="Path_32777" data-name="Path 32777" d="M34.049,15.029c-.3,0-.555.008-.808,0a.856.856,0,0,1-.023-1.711c.571-.021,1.144-.022,1.715,0a.812.812,0,0,1,.827.861q.014,3.954,0,7.908a.818.818,0,0,1-.855.871.859.859,0,0,1-.854-.974c-.007-2.091,0-4.182,0-6.274v-.68" fill="#00355e"/>
    <path id="Path_32778" data-name="Path 32778" d="M42.142,2.37c-.312,0-.567.008-.821,0a.834.834,0,0,1-.862-.827.838.838,0,0,1,.85-.885c.528-.02,1.058-.013,1.587,0a.865.865,0,0,1,.961.957c.013.53,0,1.061,0,1.591q0,2.945,0,5.889a2.952,2.952,0,0,1-.034.557.844.844,0,0,1-1.631.052,2.586,2.586,0,0,1-.05-.6q0-3.074,0-6.148V2.37" fill="#00355e"/>
    <path id="Path_32779" data-name="Path 32779" d="M9.68,15.011l1.945-1.377a11.8,11.8,0,0,1,2.463,3.995A12.382,12.382,0,0,1,9.218,32.4a12.2,12.2,0,0,0-3.909,3.677A7.143,7.143,0,0,0,4.2,40.456c.012.171.027.343.033.515a1.18,1.18,0,0,1-2.35.218,9.239,9.239,0,0,1,.929-5.509,12.5,12.5,0,0,1,4.607-4.936,11,11,0,0,0,3.642-3.58,10.057,10.057,0,0,0-1.134-11.87c-.076-.084-.15-.17-.249-.283" fill="#4ebece"/>
    <path id="Path_32780" data-name="Path 32780" d="M6.884,9.825l-1.947,1.4A10.644,10.644,0,0,1,3.03,8.745,9.279,9.279,0,0,1,1.884,2.819,1.165,1.165,0,0,1,3.156,1.752,1.113,1.113,0,0,1,4.229,2.966,7.812,7.812,0,0,0,6.884,9.825" fill="#4ebece"/>
    <path id="Path_32781" data-name="Path 32781" d="M38.456,30.784c0-.473.023-.947-.013-1.417a.672.672,0,0,0-.266-.463c-.8-.491-1.625-.959-2.452-1.412a.551.551,0,0,0-.453,0q-1.259.692-2.488,1.434a.556.556,0,0,0-.232.4q-.03,1.44,0,2.879a.556.556,0,0,0,.228.4q1.229.742,2.487,1.436a.556.556,0,0,0,.457,0c.827-.454,1.646-.923,2.45-1.415a.677.677,0,0,0,.269-.462c.037-.455.013-.916.013-1.374" fill="#4ebece"/>
    <path id="Path_32782" data-name="Path 32782" d="M26.991,37.365c0-.473.017-.948-.01-1.42a.574.574,0,0,0-.217-.4c-.832-.5-1.677-.986-2.528-1.46a.461.461,0,0,0-.381-.006q-1.293.721-2.563,1.483a.51.51,0,0,0-.213.365q-.027,1.441,0,2.883a.555.555,0,0,0,.229.4q1.23.744,2.49,1.437a.6.6,0,0,0,.493-.006c.815-.446,1.61-.931,2.424-1.38A.485.485,0,0,0,27,38.742c-.014-.459,0-.918,0-1.377" fill="#4ebece"/>
    <path id="Path_32783" data-name="Path 32783" d="M39.412,17.964c0,.6-.01,1.2,0,1.807a1.43,1.43,0,1,0,2.859-.012q.014-1.786,0-3.571a1.44,1.44,0,0,0-1.417-1.478,1.42,1.42,0,0,0-1.44,1.447c-.015.6,0,1.2,0,1.807" fill="#4ebece"/>
    <path id="Path_32784" data-name="Path 32784" d="M21.068,5.473V7.238a1.446,1.446,0,0,0,1.436,1.5A1.427,1.427,0,0,0,23.95,7.251q.024-1.764,0-3.529a1.443,1.443,0,1,0-2.881.029c-.008.574,0,1.148,0,1.722" fill="#4ebece"/>
  </g>
</svg>
