<svg id="Logo-main" xmlns="http://www.w3.org/2000/svg" width="154.943" height="75.5" viewBox="0 0 154.943 75.5">
  <path id="Path_23151" data-name="Path 23151" d="M573.848,105.284v9.43h-2.662V93.546h2.662v9.416h8.691V93.546H585.2v21.168h-2.663v-9.43Z" transform="translate(-570.866 -39.57)" fill="#16375b"/>
  <path id="Path_23152" data-name="Path 23152" d="M590.072,107.579v.044a4.886,4.886,0,0,0,1.456,3.6,4.783,4.783,0,0,0,6.763.111c.046-.045.091-.09.135-.137.136-.14.4-.437.8-.927l2.5.875a8.194,8.194,0,0,1-1.312,1.661,7.541,7.541,0,0,1-11.015-10.3c.051-.053.1-.105.156-.157a7.712,7.712,0,0,1,10.855.053,7.023,7.023,0,0,1,1.928,5.176Zm.472-2.326h8.809q-.944-2.736-4.372-2.732t-4.437,2.732Z" transform="translate(-570.866 -39.57)" fill="#16375b"/>
  <path id="Path_23153" data-name="Path 23153" d="M619.048,114.714h-2.662v-2.356a5.183,5.183,0,0,1-4.809,2.706,7.462,7.462,0,0,1-5.572-12.536c.055-.057.111-.114.168-.169a7.374,7.374,0,0,1,5.4-2.208,5.2,5.2,0,0,1,4.809,2.68v-1.574h2.662Zm-2.662-6.033v-2.147a5.02,5.02,0,0,0-4.809-4.013,4.68,4.68,0,0,0-3.441,1.469,4.959,4.959,0,0,0-1.456,3.633,4.89,4.89,0,0,0,1.456,3.6,4.783,4.783,0,0,0,6.763.111c.046-.045.092-.09.136-.137A4.81,4.81,0,0,0,616.386,108.681Z" transform="translate(-570.866 -39.57)" fill="#16375b"/>
  <path id="Path_23154" data-name="Path 23154" d="M624.636,93.546v21.168h-2.663V93.546Z" transform="translate(-570.866 -39.57)" fill="#16375b"/>
  <path id="Path_23155" data-name="Path 23155" d="M629.226,101.271V96.046h2.658v5.225h2.5v2.29h-2.5v11.153h-2.645V103.561h-2.514v-2.29Z" transform="translate(-570.866 -39.57)" fill="#16375b"/>
  <path id="Path_23156" data-name="Path 23156" d="M636.225,93.546h2.654v7.725a3.836,3.836,0,0,1,2.8-.739,5.55,5.55,0,0,1,4.11,1.556,5.269,5.269,0,0,1,1.586,3.808v8.814h-2.644v-8.687a3.064,3.064,0,0,0-.927-2.269,2.942,2.942,0,0,0-4.16-.084l-.033.031a3.392,3.392,0,0,0-.721.984v10.033h-2.663Z" transform="translate(-570.866 -39.57)" fill="#16375b"/>
  <path id="Path_23157" data-name="Path 23157" d="M663.6,103.579a9.112,9.112,0,0,1-3.659-2.134,4.548,4.548,0,0,1-1.386-3.34,4.637,4.637,0,0,1,1.434-3.357,4.81,4.81,0,0,1,3.568-1.452,4.923,4.923,0,0,1,3.6,1.487,5.157,5.157,0,0,1,1.224,2.146l-2.4.927a4.758,4.758,0,0,0-.795-1.543,2.218,2.218,0,0,0-3.132-.143c-.05.045-.1.093-.143.143a2.465,2.465,0,0,0-.712,1.814,2.562,2.562,0,0,0,.738,1.854,7.615,7.615,0,0,0,2.086,1.355,10.417,10.417,0,0,1,4.236,2.527,6.374,6.374,0,0,1,.168,9.013q-.082.085-.168.168a6.716,6.716,0,0,1-11.406-3.987l2.562-.927a5.323,5.323,0,0,0,1.311,3.371,3.818,3.818,0,0,0,2.794,1.176,3.9,3.9,0,0,0,2.846-1.216,4.332,4.332,0,0,0,.022-5.993A8.739,8.739,0,0,0,663.6,103.579Z" transform="translate(-570.866 -39.57)" fill="#16375b"/>
  <path id="Path_23158" data-name="Path 23158" d="M678.147,114.889a5.7,5.7,0,0,1-4.232-1.561,5.377,5.377,0,0,1-1.6-3.821v-8.254h2.663V109.4a3.1,3.1,0,0,0,.957,2.295,2.978,2.978,0,0,0,2.186.9,2.911,2.911,0,0,0,2.1-.918,3.065,3.065,0,0,0,.927-2.274v-8.149h2.662v8.267a5.416,5.416,0,0,1-1.617,3.852A5.5,5.5,0,0,1,678.147,114.889Z" transform="translate(-570.866 -39.57)" fill="#16375b"/>
  <path id="Path_23159" data-name="Path 23159" d="M689.509,97.436a1.609,1.609,0,0,1,.52,1.155,1.637,1.637,0,0,1-.533,1.2,2.035,2.035,0,0,1-2.715,0,1.64,1.64,0,0,1-.529-1.2,1.612,1.612,0,0,1,.529-1.172,2.033,2.033,0,0,1,2.715,0Zm-.039,3.835v13.443h-2.645V101.271Z" transform="translate(-570.866 -39.57)" fill="#16375b"/>
  <path id="Path_23160" data-name="Path 23160" d="M694.178,101.271V96.046h2.645v5.225h2.5v2.29h-2.5v11.153h-2.645V103.561h-2.5v-2.29Z" transform="translate(-570.866 -39.57)" fill="#16375b"/>
  <path id="Path_23161" data-name="Path 23161" d="M703.28,107.579v.044a4.89,4.89,0,0,0,1.456,3.6,4.783,4.783,0,0,0,6.763.111c.046-.045.092-.09.136-.137.14-.14.4-.437.8-.927l2.5.875a8.189,8.189,0,0,1-1.311,1.661,7.734,7.734,0,0,1-10.864.035,7.309,7.309,0,0,1-.156-10.336c.051-.053.1-.105.156-.157a7.747,7.747,0,0,1,10.864.031,7.024,7.024,0,0,1,1.928,5.176Zm.473-2.326h8.809c-.625-1.823-2.09-2.732-4.372-2.732s-3.79.909-4.437,2.732Z" transform="translate(-570.866 -39.57)" fill="#16375b"/>
  <g id="Group_12091" data-name="Group 12091" transform="translate(112.567 3.27)" opacity="0.75">
    <g id="Group_12090" data-name="Group 12090" opacity="0.25">
      <path id="Path_23162" data-name="Path 23162" d="M721.839,55.786,707.77,43.855l-.013.017L721.826,55.8Z" transform="translate(-683.433 -42.84)" fill="#005576"/>
      <path id="Path_23163" data-name="Path 23163" d="M684.455,51.711H684.4l23.363-7.869,14.073,11.935h.031Zm.057,0,37.283,4.084L707.762,43.877Z" transform="translate(-683.433 -42.84)" fill="#005576"/>
      <path id="Path_23164" data-name="Path 23164" d="M708.667,86.616h0l-24.22-34.909v-.022l37.4,4.1h0Zm0-.03L721.83,55.8l-37.335-4.093Z" transform="translate(-683.433 -42.84)" fill="#005576"/>
      <path id="Path_23165" data-name="Path 23165" d="M685.352,52.192a1.023,1.023,0,1,0-1.391.4l.005,0A1.023,1.023,0,0,0,685.352,52.192Z" transform="translate(-683.433 -42.84)" fill="#005576"/>
      <path id="Path_23166" data-name="Path 23166" d="M708.662,44.354a.983.983,0,1,0-.005.01Z" transform="translate(-683.433 -42.84)" fill="#005576"/>
      <path id="Path_23167" data-name="Path 23167" d="M722.731,56.284a1.023,1.023,0,1,0-1.39.407,1.024,1.024,0,0,0,1.39-.407Z" transform="translate(-683.433 -42.84)" fill="#005576"/>
      <path id="Path_23168" data-name="Path 23168" d="M709.231,86.927a.643.643,0,1,0-.892.275A.661.661,0,0,0,709.231,86.927Z" transform="translate(-683.433 -42.84)" fill="#005576"/>
    </g>
  </g>
  <g id="Group_12092" data-name="Group 12092" transform="translate(98.397 7.35)" opacity="0.26">
    <path id="Path_23169" data-name="Path 23169" d="M691.778,87.875V87.9l-11.423-4.455h0L697.024,47.72Zm-.03-.026,5.215-39.919L680.376,83.42Z" transform="translate(-669.263 -46.92)" fill="#005576"/>
    <path id="Path_23170" data-name="Path 23170" d="M696.985,47.807h.039L680.372,83.438v.039l-9.933-30.485h0Zm-.026.04L670.479,53l9.876,30.38Z" transform="translate(-669.263 -46.92)" fill="#005576"/>
    <path id="Path_23171" data-name="Path 23171" d="M703.3,85.073l.035.048-11.585,2.767h0L697,47.825v-.039Zm-.061-.026-6.217-37.17-5.246,39.994Z" transform="translate(-669.263 -46.92)" fill="#005576"/>
    <path id="Path_23172" data-name="Path 23172" d="M697.741,47.663a.756.756,0,1,1-.769-.743.755.755,0,0,1,.769.743Z" transform="translate(-669.263 -46.92)" fill="#005576"/>
    <path id="Path_23173" data-name="Path 23173" d="M671.642,52.966a1.19,1.19,0,1,1-1.224-1.154h.013A1.186,1.186,0,0,1,671.642,52.966Z" transform="translate(-669.263 -46.92)" fill="#005576"/>
    <path id="Path_23174" data-name="Path 23174" d="M681.461,83.407a1.111,1.111,0,1,1-1.132-1.088h0a1.1,1.1,0,0,1,1.127,1.075Z" transform="translate(-669.263 -46.92)" fill="#005576"/>
    <path id="Path_23175" data-name="Path 23175" d="M692.482,87.858a.709.709,0,1,1,0-.009Z" transform="translate(-669.263 -46.92)" fill="#005576"/>
    <path id="Path_23176" data-name="Path 23176" d="M704.741,85.213a1.259,1.259,0,1,1-1.285-1.233h0a1.255,1.255,0,0,1,1.281,1.228Z" transform="translate(-669.263 -46.92)" fill="#005576"/>
  </g>
  <g id="Group_12093" data-name="Group 12093" transform="translate(111.779)" opacity="0.75">
    <rect id="Rectangle_2575" data-name="Rectangle 2575" width="10.61" height="0.013" transform="translate(18.228 25.349) rotate(-51.74)" fill="#00576c"/>
    <path id="Path_23177" data-name="Path 23177" d="M725.441,63.529h0l-18-6.939h0L720.7,40.882h0Zm0,0L720.7,40.882,707.456,56.577Z" transform="translate(-682.645 -39.57)" fill="#00576c"/>
    <path id="Path_23178" data-name="Path 23178" d="M707.447,56.586h0l-2.859-7.4h0l16.11-8.307h.03Zm13.229-15.7L704.6,49.189l2.842,7.38" transform="translate(-682.645 -39.57)" fill="#00576c"/>
    <path id="Path_23179" data-name="Path 23179" d="M705.864,78.157v.03l-5-13.259,6.558-8.338h0Zm0-.031,1.57-21.505-6.558,8.307Z" transform="translate(-682.645 -39.57)" fill="#00576c"/>
    <path id="Path_23180" data-name="Path 23180" d="M725.441,63.52h0L705.856,78.157h0l1.591-21.588h0Zm0,0-17.994-6.93-1.583,21.554Z" transform="translate(-682.645 -39.57)" fill="#00576c"/>
    <path id="Path_23181" data-name="Path 23181" d="M706.122,77.632a.586.586,0,1,0,.258.787h0A.585.585,0,0,0,706.122,77.632Z" transform="translate(-682.645 -39.57)" fill="#00576c"/>
    <path id="Path_23182" data-name="Path 23182" d="M701.138,64.39a.59.59,0,1,0,.257.794v0A.589.589,0,0,0,701.138,64.39Z" transform="translate(-682.645 -39.57)" fill="#00576c"/>
    <path id="Path_23183" data-name="Path 23183" d="M707.709,56.057a.59.59,0,1,0,.257.794v0A.59.59,0,0,0,707.709,56.057Z" transform="translate(-682.645 -39.57)" fill="#00576c"/>
    <path id="Path_23184" data-name="Path 23184" d="M721.043,40.2a.756.756,0,1,0,.331,1.017l0,0A.757.757,0,0,0,721.043,40.2Z" transform="translate(-682.645 -39.57)" fill="#00576c"/>
    <circle id="Ellipse_388" data-name="Ellipse 388" cx="0.376" cy="0.376" r="0.376" transform="translate(42.412 23.583)" fill="#00576c"/>
    <path id="Path_23185" data-name="Path 23185" d="M704.754,48.874a.349.349,0,0,0-.47.154l0,0a.35.35,0,1,0,.625.314h0A.355.355,0,0,0,704.754,48.874Z" transform="translate(-682.645 -39.57)" fill="#00576c"/>
    <path id="Path_23186" data-name="Path 23186" d="M704.693,70.921h0l-6.025,6.711h0l4.774-16.915v-.026Zm0,0-1.251-10.16-4.765,16.845Z" transform="translate(-682.645 -39.57)" fill="#00576c"/>
    <path id="Path_23187" data-name="Path 23187" d="M708.164,66.466h0l-3.5,4.464-1.259-10.217Zm0,0-4.726-5.714,1.255,10.156Z" transform="translate(-682.645 -39.57)" fill="#00576c"/>
    <path id="Path_23188" data-name="Path 23188" d="M696.88,45.936l-8.844,1.045,0,.013,8.84-1.045Z" transform="translate(-682.645 -39.57)" fill="#00576c"/>
    <path id="Path_23189" data-name="Path 23189" d="M703.438,60.739h0l-6.558-14.8h0l17.2-1.456h0Zm0,0,10.637-16.245-17.169,1.455Z" transform="translate(-682.645 -39.57)" fill="#00576c"/>
    <path id="Path_23190" data-name="Path 23190" d="M696.88,45.949h0l2.693-6.085h0l14.5,4.616h.026Zm17.16-1.464-14.458-4.612-2.693,6.063" transform="translate(-682.645 -39.57)" fill="#00576c"/>
    <path id="Path_23191" data-name="Path 23191" d="M683.144,57.806h-.022L688.036,47l8.844-1.045h0Zm0-.026L696.85,45.949,688.04,47Z" transform="translate(-682.645 -39.57)" fill="#00576c"/>
    <path id="Path_23192" data-name="Path 23192" d="M698.668,77.632h0L683.135,57.806h0l20.312,2.938Zm0,0,4.761-16.88-20.272-2.933Z" transform="translate(-682.645 -39.57)" fill="#00576c"/>
    <path id="Path_23193" data-name="Path 23193" d="M703.438,60.731h0l-20.3-2.938h0l13.75-11.87h0Zm0,0L696.88,45.958,683.153,57.8Z" transform="translate(-682.645 -39.57)" fill="#00576c"/>
    <path id="Path_23194" data-name="Path 23194" d="M683.607,57.644a.461.461,0,1,0,0,.01Z" transform="translate(-682.645 -39.57)" fill="#00576c"/>
    <path id="Path_23195" data-name="Path 23195" d="M688.508,46.833a.494.494,0,1,0-.334.613l.019-.006A.5.5,0,0,0,688.508,46.833Z" transform="translate(-682.645 -39.57)" fill="#00576c"/>
    <path id="Path_23196" data-name="Path 23196" d="M697.348,45.788a.494.494,0,1,0-.315.625.494.494,0,0,0,.315-.625Z" transform="translate(-682.645 -39.57)" fill="#00576c"/>
    <path id="Path_23197" data-name="Path 23197" d="M714.35,44.38a.3.3,0,1,0-.188.376h0A.3.3,0,0,0,714.35,44.38Z" transform="translate(-682.645 -39.57)" fill="#00576c"/>
    <path id="Path_23198" data-name="Path 23198" d="M703.731,60.634a.332.332,0,1,0,0,.007Z" transform="translate(-682.645 -39.57)" fill="#00576c"/>
    <path id="Path_23199" data-name="Path 23199" d="M705.073,70.795a.406.406,0,1,0-.261.512h0a.4.4,0,0,0,.26-.506Z" transform="translate(-682.645 -39.57)" fill="#00576c"/>
    <path id="Path_23200" data-name="Path 23200" d="M708.514,66.353a.374.374,0,0,0-.709.236h0a.374.374,0,0,0,.709-.236Z" transform="translate(-682.645 -39.57)" fill="#00576c"/>
    <path id="Path_23201" data-name="Path 23201" d="M699.857,39.772a.294.294,0,1,0-.559.184.293.293,0,0,0,.368.189h0A.3.3,0,0,0,699.857,39.772Z" transform="translate(-682.645 -39.57)" fill="#00576c"/>
    <path id="Path_23202" data-name="Path 23202" d="M699.28,77.912a.614.614,0,1,0,0,.007Z" transform="translate(-682.645 -39.57)" fill="#00576c"/>
    <path id="Path_23203" data-name="Path 23203" d="M706.227,78.345a.437.437,0,0,0-.67-.562.535.535,0,0,0,.1.75A.438.438,0,0,0,706.227,78.345Z" transform="translate(-682.645 -39.57)" fill="#00576c"/>
    <path id="Path_23204" data-name="Path 23204" d="M708.448,75.1a.565.565,0,1,0-.759.251A.566.566,0,0,0,708.448,75.1Z" transform="translate(-682.645 -39.57)" fill="#00576c"/>
  </g>
  <g id="Group_12097" data-name="Group 12097" transform="translate(89.364 2.596)" opacity="0.24">
    <g id="Group_12095" data-name="Group 12095" opacity="0.75">
      <g id="Group_12094" data-name="Group 12094" opacity="0.25">
        <path id="Path_23205" data-name="Path 23205" d="M693.6,73.112l-16.018,4.717,0-.017L693.6,73.09Z" transform="translate(-660.23 -42.166)" fill="#005576"/>
        <path id="Path_23206" data-name="Path 23206" d="M718.228,62.938h0l-24.64,10.178h0l.376-30.376h0ZM693.61,73.085,718.18,62.93,694,42.78Z" transform="translate(-660.23 -42.166)" fill="#005576"/>
        <path id="Path_23207" data-name="Path 23207" d="M693.636,73.1H693.6l-16.023,4.721L661.114,62.763h.048Zm-16.053,4.7,15.979-4.7L661.21,62.812Z" transform="translate(-660.23 -42.166)" fill="#005576"/>
        <path id="Path_23208" data-name="Path 23208" d="M693.61,73.116h0L661.132,62.79h0L694,42.74h0ZM661.175,62.785l32.4,10.3.385-30.305Z" transform="translate(-660.23 -42.166)" fill="#005576"/>
        <path id="Path_23209" data-name="Path 23209" d="M662.08,62.711a.926.926,0,1,1-1-.844h0a.923.923,0,0,1,1,.837Z" transform="translate(-660.23 -42.166)" fill="#005576"/>
        <path id="Path_23210" data-name="Path 23210" d="M678.5,77.741a.927.927,0,1,1-1-.843h0a.921.921,0,0,1,1,.837Z" transform="translate(-660.23 -42.166)" fill="#005576"/>
        <path id="Path_23211" data-name="Path 23211" d="M694.519,73.024a.927.927,0,1,1-1-.843h.011A.928.928,0,0,1,694.519,73.024Z" transform="translate(-660.23 -42.166)" fill="#005576"/>
        <path id="Path_23212" data-name="Path 23212" d="M694.581,42.71a.595.595,0,1,1-.643-.542h0A.6.6,0,0,1,694.581,42.71Z" transform="translate(-660.23 -42.166)" fill="#005576"/>
      </g>
      <path id="Path_23213" data-name="Path 23213" d="M719.006,62.864a.826.826,0,1,1-.892-.755h.018A.835.835,0,0,1,719.006,62.864Z" transform="translate(-660.23 -42.166)" fill="#005576"/>
    </g>
    <g id="Group_12096" data-name="Group 12096" transform="translate(17.182 4.697)" opacity="0.75">
      <path id="Path_23214" data-name="Path 23214" d="M699.508,50.347h0l6.194,1.959h0l-7.585,19.459Zm0,0-1.382,21.3L705.672,52.3Z" transform="translate(-677.412 -46.863)" fill="#00576c"/>
      <path id="Path_23215" data-name="Path 23215" d="M698.135,71.717h0l7.576-19.42v-.022l6.3,15.778h0Zm0,0,13.832-3.637-6.273-15.739Z" transform="translate(-677.412 -46.863)" fill="#00576c"/>
      <path id="Path_23216" data-name="Path 23216" d="M677.434,48.28h0l21.422-1.417h0l.647,3.5h0Zm.149.03,21.925,2.024-.647-3.466Z" transform="translate(-677.412 -46.863)" fill="#00576c"/>
      <path id="Path_23217" data-name="Path 23217" d="M677.434,48.28l-.022-.022,22.109,2.081h0l-1.386,21.369h0Zm.031,0,20.657,23.393,1.386-21.334Z" transform="translate(-677.412 -46.863)" fill="#00576c"/>
    </g>
  </g>
  <path id="Path_23218" data-name="Path 23218" d="M702.988,60.853a.467.467,0,1,1,.05.15A.473.473,0,0,1,702.988,60.853Z" transform="translate(-570.866 -39.57)" fill="#00576c"/>
  <path id="Path_23219" data-name="Path 23219" d="M703.77,61.723a1.065,1.065,0,1,0-.006,0Zm-.581-1.749a.773.773,0,0,1,.983.48l.005.014a.783.783,0,1,1-.991-.493Z" transform="translate(-570.866 -39.57)" fill="#00576c"/>
  <circle id="Ellipse_389" data-name="Ellipse 389" cx="0.332" cy="0.332" r="0.332" transform="translate(136.476 14.397)" fill="#00576c"/>
  <path id="Path_23220" data-name="Path 23220" d="M707.91,55.012a.752.752,0,1,0-.949-.479v0A.751.751,0,0,0,707.91,55.012Zm-.393-1.237a.551.551,0,1,1-.35.7h0a.547.547,0,0,1,.343-.693Z" transform="translate(-570.866 -39.57)" fill="#00576c"/>
  <path id="Path_23221" data-name="Path 23221" d="M714.411,72.211a.521.521,0,1,1,.66.332.521.521,0,0,1-.66-.332Z" transform="translate(-570.866 -39.57)" fill="#00576c"/>
  <path id="Path_23222" data-name="Path 23222" d="M715.281,73.177a1.189,1.189,0,1,0-1.5-.756A1.189,1.189,0,0,0,715.281,73.177Zm-.647-1.954a.875.875,0,1,1-.16.053A.812.812,0,0,1,714.634,71.223Z" transform="translate(-570.866 -39.57)" fill="#00576c"/>
  <path id="Path_23223" data-name="Path 23223" d="M613.033,73.107a13.158,13.158,0,0,1,5.163,9.714v9.343L576.034,63.747A13.241,13.241,0,0,1,570.866,54v-9.33Z" transform="translate(-570.866 -39.57)" fill="#2eb9cc"/>
  <path id="Path_23224" data-name="Path 23224" d="M587.938,76.946a10.972,10.972,0,0,1,4.3,8.1v7.432L575.19,80.963a10.957,10.957,0,0,1-4.306-8.092V65.439Z" transform="translate(-570.866 -39.57)" fill="#2eb9cc"/>
  <path id="Path_23225" data-name="Path 23225" d="M613.894,55.852a10.967,10.967,0,0,1,4.3,8.1V71.4l-17.05-11.515a10.956,10.956,0,0,1-4.307-8.092V44.362Z" transform="translate(-570.866 -39.57)" fill="#2eb9cc"/>
  <path id="Path_23226" data-name="Path 23226" d="M641.616,91.535V76.316a8,8,0,0,0-1.535-5.3,5.63,5.63,0,0,0-4.581-1.788,5.245,5.245,0,0,0-4.079,1.749,6.554,6.554,0,0,0-1.57,4.564,6.453,6.453,0,0,0,1.648,4.647,5.918,5.918,0,0,0,4.5,1.723,8.037,8.037,0,0,0,1.6-.188c.6-.123,1.4-.346,2.383-.656V91.478c-.813.17-1.587.293-2.321.38a18.038,18.038,0,0,1-2.038.122,15.334,15.334,0,0,1-11.484-4.642,16.178,16.178,0,0,1-4.5-11.809,16.246,16.246,0,0,1,4.52-11.8,15.316,15.316,0,0,1,11.485-4.647,15.894,15.894,0,0,1,8.691,2.466,15.3,15.3,0,0,1,5.837,6.728,14.073,14.073,0,0,1,1.058,3.65,42.505,42.505,0,0,1,.323,6.309v13.3Z" transform="translate(-570.866 -39.57)" fill="#1d829a"/>
  <path id="Path_23227" data-name="Path 23227" d="M672.7,91.535V73.807a5.124,5.124,0,0,0-1.312-3.625,4.31,4.31,0,0,0-3.327-1.4,4.37,4.37,0,0,0-3.34,1.4,5.113,5.113,0,0,0-1.311,3.625V91.535H653.5V75.42q0-7.471,4-11.9A13.586,13.586,0,0,1,668.087,59.1a14.641,14.641,0,0,1,11.957,6.09,13.261,13.261,0,0,1,2.011,4.3,23.646,23.646,0,0,1,.625,5.933V91.548Z" transform="translate(-570.866 -39.57)" fill="#1d829a"/>
  <path id="Path_23228" data-name="Path 23228" d="M722.254,59.6h-5.867V53.731h-7.913V59.6h-5.867v7.909h5.867v5.867h7.913V67.507h5.867Z" transform="translate(-570.866 -39.57)" fill="#e52421"/>
  <path id="Path_23229" data-name="Path 23229" d="M700.456,91.408a15.861,15.861,0,1,1-.526-31.718c.175,0,.351,0,.526,0V67.6a7.948,7.948,0,1,0,7.935,7.961v-.013H716.3A15.875,15.875,0,0,1,700.456,91.408Z" transform="translate(-570.866 -39.57)" fill="#1d829a"/>
</svg>
